<svg width="30" height="21" viewBox="0 0 30 21" fill="none" xmlns="http://www.w3.org/2000/svg">
<path d="M30 21L24.0797 11.8832C26.7639 11.2093 28.607 8.75716 28.607 6.04308C28.607 2.58941 25.7086 0 21.5618 0H13L13.0157 21H16.3694V12.5031H20.6085L26.0935 21H30ZM25.2289 6.16101C25.2289 8.04873 23.6574 9.55235 21.4312 9.55235H16.3694L16.3546 3.03923H21.7525C23.8255 3.03923 25.2289 4.36089 25.2289 6.16101Z" fill="#1B1B1B"/>
<path fill-rule="evenodd" clip-rule="evenodd" d="M7.8825 6.04848L4.20833 2.48066C4.18997 2.46307 4.17742 2.44058 4.17228 2.41605C4.16714 2.39151 4.16965 2.36605 4.17948 2.34291C4.18931 2.31976 4.20602 2.29998 4.22748 2.28608C4.24895 2.27217 4.27419 2.26478 4.3 2.26485H7.65333C7.67047 2.26495 7.68747 2.26177 7.70334 2.25548C7.7192 2.24919 7.73363 2.23992 7.74579 2.2282C7.75795 2.21648 7.76761 2.20254 7.77419 2.18719C7.78078 2.17184 7.78416 2.15538 7.78416 2.13875V0.126096C7.78416 0.109469 7.78078 0.0930064 7.77419 0.077655C7.76761 0.0623036 7.75795 0.0483677 7.74579 0.0366482C7.73363 0.0249287 7.7192 0.0156578 7.70334 0.00936873C7.68747 0.00307965 7.67047 -0.000103994 7.65333 2.59032e-06H0.13C0.0955216 2.59032e-06 0.0624555 0.0132871 0.0380758 0.0369343C0.013696 0.0605816 0 0.0926542 0 0.126096V7.42743C0 7.46087 0.013696 7.49294 0.0380758 7.51659C0.0624555 7.54024 0.0955216 7.55352 0.13 7.55352H2.205C2.23919 7.5531 2.27183 7.53963 2.29585 7.51602C2.31987 7.49242 2.33334 7.46059 2.33333 7.42743V4.17808C2.3335 4.15315 2.34123 4.12882 2.35557 4.10813C2.3699 4.08743 2.39021 4.0713 2.41394 4.06173C2.43767 4.05216 2.46379 4.04958 2.48902 4.05431C2.51426 4.05905 2.53749 4.07089 2.55583 4.08836L5.78333 7.21889C6.34427 7.76315 6.66008 8.50077 6.66166 9.27034V11.8731C6.66155 11.8897 6.66484 11.9062 6.67132 11.9216C6.6778 11.9369 6.68736 11.9509 6.69945 11.9627C6.71153 11.9745 6.7259 11.9839 6.74172 11.9903C6.75755 11.9967 6.77452 12 6.79166 12H8.86666C8.88408 12.0004 8.90142 11.9974 8.91763 11.9912C8.93385 11.985 8.94861 11.9757 8.96105 11.9639C8.97349 11.9521 8.98335 11.9379 8.99004 11.9223C8.99673 11.9067 9.00011 11.89 9 11.8731V8.65846C8.99959 8.17355 8.90069 7.69346 8.70895 7.24564C8.5172 6.79781 8.23637 6.39101 7.8825 6.04848Z" fill="#1B1B1B"/>
</svg>
